<svg width="36" height="10" viewBox="0 0 36 10" fill="none" xmlns="http://www.w3.org/2000/svg">
<path d="M35.4421 5.54936C35.6862 5.30529 35.6862 4.90956 35.4421 4.66548L31.4646 0.688005C31.2206 0.443927 30.8248 0.443927 30.5808 0.688005C30.3367 0.932083 30.3367 1.32781 30.5808 1.57189L34.1163 5.10742L30.5808 8.64296C30.3367 8.88703 30.3367 9.28276 30.5808 9.52684C30.8248 9.77092 31.2206 9.77092 31.4646 9.52684L35.4421 5.54936ZM17.8184 5.73242L35.0002 5.73242L35.0002 4.48242L17.8184 4.48242L17.8184 5.73242Z" fill="white" fill-opacity="0.98"/>
<path d="M13.3633 5.73242L17.1815 5.73242L17.1815 4.48242L13.3633 4.48242L13.3633 5.73242Z" fill="white" fill-opacity="0.98"/>
<path d="M8.91016 5.73242L12.7283 5.73242L12.7283 4.48242L8.91016 4.48242L8.91016 5.73242Z" fill="white" fill-opacity="0.98"/>
<path d="M4.45508 5.73242L8.27326 5.73242L8.27326 4.48242L4.45508 4.48242L4.45508 5.73242Z" fill="white" fill-opacity="0.98"/>
<path d="M2.72848e-08 5.73242L3.81818 5.73242L3.81818 4.48242L-2.72848e-08 4.48242L2.72848e-08 5.73242Z" fill="white" fill-opacity="0.98"/>
</svg>
