<svg width="36" height="10" viewBox="0 0 36 10" fill="none" xmlns="http://www.w3.org/2000/svg">
<path d="M0.55788 5.44194C0.313803 5.19786 0.313803 4.80214 0.55788 4.55806L4.53536 0.580583C4.77943 0.336506 5.17516 0.336506 5.41924 0.580583C5.66332 0.824661 5.66332 1.22039 5.41924 1.46447L1.88371 5L5.41924 8.53553C5.66332 8.77961 5.66332 9.17534 5.41924 9.41942C5.17516 9.6635 4.77943 9.6635 4.53536 9.41942L0.55788 5.44194ZM18.1816 5.625L0.999823 5.625L0.999823 4.375L18.1816 4.375L18.1816 5.625Z" fill="white" fill-opacity="0.98"/>
<path d="M22.6367 5.625L18.8185 5.625L18.8185 4.375L22.6367 4.375L22.6367 5.625Z" fill="white" fill-opacity="0.98"/>
<path d="M27.0898 5.625L23.2717 5.625L23.2717 4.375L27.0898 4.375L27.0898 5.625Z" fill="white" fill-opacity="0.98"/>
<path d="M31.5449 5.625L27.7267 5.625L27.7267 4.375L31.5449 4.375L31.5449 5.625Z" fill="white" fill-opacity="0.98"/>
<path d="M36 5.625L32.1818 5.625L32.1818 4.375L36 4.375L36 5.625Z" fill="white" fill-opacity="0.98"/>
</svg>
