<svg width="10" height="77" viewBox="0 0 10 77" fill="none" xmlns="http://www.w3.org/2000/svg">
<path d="M4.55738 76.7753C4.8009 77.0133 5.19651 77.0035 5.44099 76.7534L9.42515 72.6772C9.66964 72.4271 9.67042 72.0314 9.4269 71.7934C9.18339 71.5553 8.78778 71.5652 8.54329 71.8153L5.00182 75.4385L1.4744 71.9907C1.23088 71.7527 0.835277 71.7625 0.59079 72.0126C0.346302 72.2628 0.345516 72.6585 0.589034 72.8965L4.55738 76.7753ZM4.44941 39.0155L4.37526 76.3379L5.62487 76.3069L5.69903 38.9845L4.44941 39.0155Z" fill="#FF8C22"/>
<path d="M4.375 29.0183L4.375 37.3092L5.625 37.3092L5.625 29.0183L4.375 29.0183Z" fill="#FF8C22"/>
<path d="M4.375 19.3455L4.375 27.6364L5.625 27.6364L5.625 19.3455L4.375 19.3455Z" fill="#FF8C22"/>
<path d="M4.375 9.67285L4.375 17.9638L5.625 17.9638L5.625 9.67285L4.375 9.67285Z" fill="#FF8C22"/>
<path d="M4.375 2.73196e-08L4.375 8.29091L5.625 8.29091L5.625 -2.73196e-08L4.375 2.73196e-08Z" fill="#FF8C22"/>
</svg>
